HIERARCHY
ROOT pelvis
{
  OFFSET 0.0 0.0 0.00
  CHANNELS 6 Xposition Yposition Zposition Zrotation Yrotation Xrotation
  JOINT waist
  {
    OFFSET 0.0 20.6881 -0.731520
    CHANNELS 3 Zrotation Xrotation Yrotation
    JOINT neck
    {
      OFFSET 0.0 33.8937 -2.682240
      CHANNELS 3 Zrotation Xrotation Yrotation
      JOINT forehead
      {
        OFFSET 0.08128 7.7216 5.770880
        CHANNELS 3 Zrotation Xrotation Yrotation
        End Site
        {
          OFFSET 0.0 0.0 0.0
        }
      }
    }
    JOINT r_shoulder
    {
      OFFSET -11.46048 29.01697 -3.90144000000000050
      CHANNELS 3 Zrotation Xrotation Yrotation
      JOINT r_elbow
      {
        OFFSET -28.1742 -1.7115 0.487680
        CHANNELS 3 Zrotation Xrotation Yrotation
        JOINT r_wrist
        {
          OFFSET -22.5879 0.773209 7.071360
          CHANNELS 3 Zrotation Xrotation Yrotation
          End Site
          {
            OFFSET 0.0 0.0 0.0
          }
        }
      }
    }
    JOINT l_shoulder
    {
      OFFSET 11.46048 29.01697 -3.90144000000000050
      CHANNELS 3 Zrotation Xrotation Yrotation
      JOINT l_elbow
      {
        OFFSET 28.1742 -1.7115 0.487680
        CHANNELS 3 Zrotation Xrotation Yrotation
        JOINT l_wrist
        {
          OFFSET 22.5879 0.773209 7.071360
          CHANNELS 3 Zrotation Xrotation Yrotation
          End Site
          {
            OFFSET 0.0 0.0 0.0
          }
        }
      }
    }
  }
  JOINT r_hip
  {
    OFFSET -8.77824 2.64397 -0.975360
    CHANNELS 3 Zrotation Xrotation Yrotation
    JOINT r_knee
    {
      OFFSET 0.0 -36.8199 0.731520
      CHANNELS 3 Zrotation Xrotation Yrotation
      JOINT r_ankle
      {
        OFFSET 0.73152 -45.1104 -5.120640
        CHANNELS 3 Zrotation Xrotation Yrotation
        JOINT r_toe
        {
          OFFSET -1.1221 -3.69964 12.1030
          CHANNELS 3 Zrotation Xrotation Yrotation
          End Site
          {
            OFFSET 0.0 0.0 0.0
          }
        }
      }
    }
  }
  JOINT l_hip
  {
    OFFSET 8.77824 2.64397 -0.975360
    CHANNELS 3 Zrotation Xrotation Yrotation
    JOINT l_knee
    {
      OFFSET 0.0 -36.8199 0.731520
      CHANNELS 3 Zrotation Xrotation Yrotation
      JOINT l_ankle
      {
        OFFSET -0.73152 -45.1104 -5.120640
        CHANNELS 3 Zrotation Xrotation Yrotation
        JOINT l_toe
        {
          OFFSET 1.1221 -3.69964 12.1030
          CHANNELS 3 Zrotation Xrotation Yrotation
          End Site
          {
            OFFSET 0.0 0.0 0.0
          }
        }
      }
    }
  }
}
MOTION
Frames: 20
Frame Time: 0.01
57.79054496941921 79.40319889102108 -23.845356398985277 2.27144 -7.78511 -2.83969 -4.3845 8.13788 4.46957 -1.42485 -39.05921 2.58455 0.0 0.0 0.0 65.08497 39.21292 17.36919 -23.07771 -17.58064 46.92314 -0.57301 -20.99262 -3.09152 -85.94709 5.85886 11.51003 9.48027 -3.84674 -16.84269 0.41431 -17.81588 2.59333 -0.1477 -3.26344 9.05657 -1.17186 59.4662 1.30622 1.45444 27.23058 -6.2584 0.0 0.0 0.0 -7.71194 -34.43606 -3.64406 0.55025 46.15711 -0.43229 2.26377 -6.70886 8.4085 0.0 0.0 0.0
57.94265032715654 79.60195207636622 -22.349104224101676 2.72889 -7.79882 -2.8505 -4.9255 8.14746 4.16398 -1.38098 -38.86701 2.94743 0.0 0.0 0.0 66.065 39.28905 16.7948 -22.41034 -16.50498 45.02038 -0.55601 -20.69396 -3.04347 -86.14241 7.14039 10.68703 9.96153 -4.13431 -17.74475 0.47373 -19.04006 2.78419 -0.5156 -6.04429 8.94891 -1.3917 62.40413 1.48081 1.65549 26.02875 -7.59373 0.0 0.0 0.0 -8.53368 -33.21665 -3.7057 0.54156 45.95424 -0.42775 2.42624 -7.55754 8.64578 0.0 0.0 0.0
58.02479892946473 79.804857853087 -20.828826891454778 2.93048 -7.67815 -2.87635 -5.29983 8.16698 3.82182 -1.31817 -38.62861 3.27833 0.0 0.0 0.0 67.12916 39.1953 16.09514 -21.68698 -15.41413 43.06611 -0.53404 -20.29619 -2.97982 -86.22055 8.45127 9.79503 10.46435 -4.44902 -18.69225 0.52906 -20.10422 2.95234 -0.72847 -8.71766 8.77095 -1.61801 64.90937 1.67666 1.73905 24.27925 -8.99856 0.0 0.0 0.0 -9.19634 -31.90123 -3.77934 0.52687 45.59409 -0.43006 2.56707 -8.32176 8.80423 0.0 0.0 0.0
58.06493632070123 80.05321178420796 -19.306471541016652 2.89006 -7.45962 -2.91023 -5.46478 8.21028 3.47176 -1.29912 -38.38465 3.53047 0.0 0.0 0.0 68.28839 38.97072 15.23341 -20.94347 -14.35867 41.14122 -0.51393 -19.92599 -2.9208 -86.24069 9.81651 8.84851 11.01931 -4.8109 -19.74549 0.58116 -21.04276 3.10262 -0.73012 -11.29076 8.57531 -1.84038 67.01566 1.88279 1.69639 22.26659 -10.40845 0.0 0.0 0.0 -9.64417 -30.49934 -3.85414 0.50724 45.10638 -0.43696 2.68161 -9.01192 8.8784 0.0 0.0 0.0
58.09527759018844 80.36995286091499 -17.774262122424428 2.78024 -7.21531 -2.94485 -5.43963 8.2713 3.1238 -1.33722 -38.13681 3.69678 0.0 0.0 0.0 69.53069 38.62032 14.20022 -20.19175 -13.35691 39.25979 -0.49714 -19.61292 -2.87105 -86.20636 11.25074 7.85907 11.63056 -5.22464 -20.91828 0.63036 -21.88121 3.23857 -0.54263 -13.77243 8.37848 -2.04839 68.73848 2.08796 1.52857 20.14271 -11.76575 0.0 0.0 0.0 -9.89362 -29.01307 -3.92613 0.48336 44.5029 -0.44739 2.7687 -9.63852 8.87125 0.0 0.0 0.0
58.14933963726892 80.73885062316167 -16.225612739717732 2.76874 -6.97598 -2.98801 -5.33249 8.32001 2.77686 -1.40222 -37.8641 3.8107 0.0 0.0 0.0 70.85224 38.14045 13.01875 -19.42877 -12.40272 37.40883 -0.48099 -19.30883 -2.82287 -86.11572 12.77014 6.85583 12.28517 -5.68566 -22.18944 0.67843 -22.6632 3.36687 -0.29884 -16.17399 8.17479 -2.23233 70.10324 2.2807 1.25078 18.03096 -12.9685 0.0 0.0 0.0 -10.06005 -27.45916 -3.9976 0.45631 43.8066 -0.46122 2.83446 -10.22145 8.80453 0.0 0.0 0.0
58.203774334305386 81.05179394200003 -14.666324603981394 2.88271 -6.70757 -3.01386 -5.27535 8.31506 2.42854 -1.4552 -37.5197 3.91238 0.0 0.0 0.0 72.20675 37.50901 11.71585 -18.63807 -11.47803 35.55432 -0.46207 -18.94137 -2.76502 -85.92184 14.38209 5.87292 12.95827 -6.18231 -23.51311 0.72785 -23.42621 3.49372 -0.16299 -18.49657 7.95179 -2.38127 71.10626 2.44772 0.90179 16.06143 -13.89168 0.0 0.0 0.0 -10.28061 -25.84659 -4.06864 0.42722 43.02232 -0.47804 2.88635 -10.77783 8.70096 0.0 0.0 0.0
58.25812956713349 81.29653727103951 -13.106468684891254 3.08648 -6.37583 -2.99706 -5.32488 8.24042 2.07498 -1.47433 -37.09691 4.02411 0.0 0.0 0.0 73.5807 36.73151 10.31954 -17.82414 -10.58479 33.70252 -0.43934 -18.48479 -2.69354 -85.63013 16.08319 4.93126 13.64054 -6.71118 -24.87453 0.78045 -24.19612 3.62352 -0.20566 -20.73572 7.70634 -2.48413 71.75953 2.5767 0.52268 14.29514 -14.48765 0.0 0.0 0.0 -10.61678 -24.20009 -4.1458 0.39697 42.17432 -0.49788 2.93032 -11.3163 8.57982 0.0 0.0 0.0
58.330305092502385 81.54395989393208 -11.534453448275238 3.31306 -5.96612 -2.98385 -5.42418 8.11324 1.69787 -1.45167 -36.63408 4.15062 0.0 0.0 0.0 74.97946 35.84864 8.85527 -17.01179 -9.74134 31.90305 -0.41442 -17.97024 -2.61338 -85.28485 17.84567 4.02726 14.34748 -7.28788 -26.30511 0.83729 -24.99317 3.7596 -0.35972 -22.8865 7.44916 -2.53094 72.08443 2.65656 0.13463 12.68741 -14.81866 0.0 0.0 0.0 -11.02129 -22.56306 -4.25342 0.36664 41.31198 -0.5214 2.97361 -11.83662 8.46641 0.0 0.0 0.0
58.405654458322864 81.80833248086446 -9.937537443173476 3.50281 -5.49462 -3.01648 -5.45997 7.95944 1.26596 -1.3792 -36.16378 4.29093 0.0 0.0 0.0 76.36058 34.89826 7.34267 -16.22331 -8.96337 30.20296 -0.3896 -17.44113 -2.53139 -84.88516 19.61281 3.14363 15.09555 -7.93257 -27.8392 0.89905 -25.82564 3.90351 -0.4927 -24.93249 7.19363 -2.51436 72.06451 2.67805 -0.25879 11.13705 -14.98978 0.0 0.0 0.0 -11.39079 -20.97683 -4.4255 0.33755 40.47354 -0.5492 3.02518 -12.32848 8.39071 0.0 0.0 0.0
58.470775534411224 82.06874174791321 -8.3481565000555 3.59771 -4.96165 -3.03469 -5.3555 7.79783 0.75964 -1.25428 -35.70743 4.44204 0.0 0.0 0.0 77.69208 33.90758 5.79518 -15.47734 -8.26384 28.63083 -0.36617 -16.92507 -2.45185 -84.42938 21.34318 2.26746 15.89102 -8.65583 -29.50063 0.96623 -26.69658 4.05603 -0.51367 -26.85967 6.94962 -2.43315 71.68539 2.63838 -0.65788 9.57012 -15.0733 0.0 0.0 0.0 -11.65096 -19.46582 -4.68078 0.31056 39.68186 -0.58149 3.09101 -12.78496 8.37075 0.0 0.0 0.0
58.48496181926239 82.2597335914907 -6.788148546217758 3.56487 -4.35527 -2.97737 -5.11955 7.63485 0.19844 -1.0979 -35.2462 4.58356 0.0 0.0 0.0 78.91153 32.8727 4.2259 -14.76747 -7.63559 27.15891 -0.34346 -16.40391 -2.37204 -83.87279 23.00816 1.3955 16.71315 -9.44604 -31.26071 1.03712 -27.57144 4.21169 -0.43252 -28.63528 6.71954 -2.29438 70.91425 2.54317 -1.05709 7.95661 -15.0688 0.0 0.0 0.0 -11.78712 -17.99933 -4.9865 0.28543 38.90241 -0.61652 3.164 -13.20445 8.38239 0.0 0.0 0.0
58.47988935965395 82.40172814628129 -5.235619253515011 3.51595 -3.7164 -2.8755 -4.82271 7.48448 -0.36237 -0.95817 -34.77775 4.67866 0.0 0.0 0.0 80.01267 31.81752 2.66176 -14.08306 -7.06304 25.76007 -0.32002 -15.84457 -2.28688 -83.23516 24.5972 0.53455 17.54383 -10.29278 -33.08399 1.1083 -28.40815 4.36302 -0.32819 -30.2238 6.51446 -2.11338 69.76966 2.40577 -1.44768 6.29434 -14.94319 0.0 0.0 0.0 -11.83087 -16.5244 -5.26759 0.26167 38.10108 -0.65121 3.22717 -13.60231 8.37254 0.0 0.0 0.0
58.50921888869889 82.55046022910174 -3.662387157130684 3.53865 -3.08193 -2.80738 -4.53209 7.36313 -0.87357 -0.87853 -34.31568 4.6967 0.0 0.0 0.0 81.03104 30.77898 1.12336 -13.4172 -6.53212 24.41989 -0.29484 -15.22167 -2.19256 -82.57194 26.1134 -0.31034 18.37664 -11.19359 -34.95762 1.17649 -29.18156 4.50478 -0.27436 -31.60734 6.34805 -1.90731 68.29311 2.24153 -1.81947 4.58161 -14.67186 0.0 0.0 0.0 -11.82152 -14.99469 -5.45803 0.23902 37.25927 -0.68298 3.26482 -13.9976 8.2947 0.0 0.0 0.0
58.55233995343352 82.72201481915755 -2.0737342431831656 3.59042 -2.45989 -2.7884 -4.27036 7.27353 -1.33027 -0.86915 -33.86809 4.6407 0.0 0.0 0.0 81.97157 29.77979 -0.38691 -12.76878 -6.03734 23.13278 -0.26825 -14.53154 -2.08868 -81.89244 27.54608 -1.14234 19.20123 -12.14033 -36.86884 1.23935 -29.87492 4.63332 -0.29994 -32.78644 6.21825 -1.69006 66.49444 2.06266 -2.15573 2.84403 -14.26209 0.0 0.0 0.0 -11.77763 -13.38915 -5.53729 0.21714 36.34899 -0.71005 3.26726 -14.3703 8.13265 0.0 0.0 0.0
58.57025248736081 82.93311258750445 -0.5121134086276811 3.58556 -1.87098 -2.71811 -4.03084 7.20888 -1.77302 -0.91434 -33.46408 4.55489 0.0 0.0 0.0 82.8411 28.86347 -1.87528 -12.15128 -5.58456 21.92239 -0.24171 -13.80335 -1.97976 -81.20208 28.86569 -1.97249 20.00789 -13.12325 -38.80171 1.29531 -30.47827 4.74626 -0.4115 -33.78913 6.10688 -1.47346 64.38817 1.87816 -2.43277 1.17657 -13.76634 0.0 0.0 0.0 -11.705 -11.71486 -5.51908 0.19553 35.33176 -0.7302 3.22702 -14.64273 7.89664 0.0 0.0 0.0
58.53675409213102 83.1326090071272 1.0170329688591955 3.53287 -1.28904 -2.57885 -3.80128 7.15578 -2.24995 -0.9946 -33.11842 4.49046 0.0 0.0 0.0 83.59858 28.06512 -3.34589 -11.57444 -5.17781 20.80614 -0.21656 -13.06782 -1.87045 -80.45968 30.01835 -2.80994 20.77526 -14.12315 -40.70839 1.34195 -30.96192 4.83812 -0.61495 -34.63096 5.98601 -1.26665 61.9628 1.69362 -2.62956 -0.29962 -13.23722 0.0 0.0 0.0 -11.60106 -9.98091 -5.41847 0.17367 34.14629 -0.74064 3.13631 -14.71312 7.59835 0.0 0.0 0.0
58.48868110669026 83.30575695790145 2.5421335356264114 3.51259 -0.68198 -2.44425 -3.57731 7.10993 -2.78398 -1.0951 -32.85194 4.47413 0.0 0.0 0.0 84.26669 27.40784 -4.8021 -11.05274 -4.82412 19.80635 -0.1933 -12.34277 -1.76334 -79.68593 30.99047 -3.65392 21.49886 -15.1327 -42.57815 1.37885 -31.3307 4.90916 -0.9106 -35.32766 5.85069 -1.0765 59.2489 1.51435 -2.74561 -1.53342 -12.71112 0.0 0.0 0.0 -11.47261 -8.20303 -5.25233 0.15185 32.78451 -0.74051 2.99699 -14.5453 7.25079 0.0 0.0 0.0
58.47878067988306 83.48058757489699 4.076877529246723 3.6239 -0.03696 -2.33827 -3.36018 7.07108 -3.36884 -1.19065 -32.66494 4.50205 0.0 0.0 0.0 84.9083 26.85558 -6.25631 -10.59164 -4.52298 18.92794 -0.17112 -11.6088 -1.65551 -78.92517 31.82358 -4.49387 22.18743 -16.15587 -44.43056 1.40985 -31.6375 4.96858 -1.28313 -35.88607 5.73196 -0.90689 56.30617 1.34591 -2.81165 -2.6074 -12.21994 0.0 0.0 0.0 -11.33341 -6.39137 -5.0546 0.13083 31.28603 -0.73076 2.82411 -14.19764 6.86919 0.0 0.0 0.0
58.51870830798889 83.67620334339992 5.6150486602728344 3.87865 0.66496 -2.25207 -3.15028 7.0339 -3.98633 -1.24249 -32.52431 4.55763 0.0 0.0 0.0 85.5477 26.31834 -7.72313 -10.18232 -4.26405 18.15293 -0.14864 -10.81829 -1.53999 -78.1775 32.57046 -5.31278 22.84311 -17.19285 -46.26889 1.44111 -31.94573 5.0285 -1.70571 -36.29115 5.67645 -0.7581 53.18007 1.19177 -2.87367 -3.6742 -11.79691 0.0 0.0 0.0 -11.19141 -4.5499 -4.87187 0.11129 29.69259 -0.71257 2.63767 -13.76778 6.46955 0.0 0.0 0.0
